<svg xmlns="http://www.w3.org/2000/svg" xmlns:xlink="http://www.w3.org/1999/xlink" preserveAspectRatio="xMidYMid" width="54" height="75" viewBox="0 0 54 75">
  <defs>
    <style>
      .cls-1 {
        fill: #fff;
        fill-rule: evenodd;
      }
    </style>
  </defs>
  <path d="M52.730,74.997 L1.264,74.997 C0.568,74.997 0.004,74.439 0.004,73.753 L0.004,1.229 C0.004,0.543 0.568,-0.014 1.264,-0.014 L52.731,-0.014 C53.425,-0.014 53.990,0.543 53.990,1.229 L53.990,73.753 C53.990,74.439 53.425,74.997 52.730,74.997 ZM51.470,2.472 L2.525,2.472 L2.525,72.510 L51.470,72.510 L51.470,2.472 ZM45.377,30.861 L8.616,30.861 L8.616,29.618 L45.377,29.618 L45.377,30.861 ZM45.377,38.113 L8.616,38.113 L8.616,36.869 L45.377,36.869 L45.377,38.113 ZM45.377,45.366 L8.616,45.366 L8.616,44.122 L45.377,44.122 L45.377,45.366 ZM34.348,52.619 L8.616,52.619 L8.616,51.375 L34.348,51.375 L34.348,52.619 ZM43.658,62.617 L36.265,62.617 C36.139,62.617 36.019,62.560 35.940,62.459 C35.862,62.360 35.836,62.228 35.867,62.107 L36.178,60.938 L33.998,62.387 C33.866,62.474 33.696,62.479 33.559,62.402 C33.422,62.321 33.343,62.172 33.356,62.016 L33.502,60.254 L32.262,61.375 L31.705,60.775 L33.722,58.951 C33.846,58.840 34.030,58.814 34.182,58.887 C34.334,58.960 34.424,59.119 34.409,59.286 L34.248,61.239 L36.622,59.661 C36.765,59.566 36.952,59.568 37.093,59.666 C37.232,59.765 37.296,59.940 37.252,60.102 L36.801,61.805 L43.658,61.805 L43.658,62.617 ZM45.377,65.983 L30.674,65.983 L30.674,64.741 L45.377,64.741 L45.377,65.983 ZM12.292,20.500 L41.701,20.500 L41.701,22.987 L12.292,22.987 L12.292,20.500 ZM33.460,13.224 L32.078,13.224 L32.078,15.735 C32.078,16.250 31.655,16.668 31.134,16.668 L28.146,16.668 C27.625,16.668 27.202,16.249 27.202,15.735 L27.202,12.852 C27.202,12.707 27.106,12.605 27.021,12.605 L26.773,12.605 C26.689,12.605 26.594,12.707 26.594,12.852 L26.594,15.735 C26.594,16.250 26.171,16.668 25.649,16.668 L22.663,16.668 C22.142,16.668 21.718,16.249 21.718,15.735 L21.718,13.224 L20.337,13.224 C19.959,13.224 19.619,13.003 19.470,12.660 C19.320,12.319 19.391,11.923 19.649,11.653 L26.207,4.766 C26.560,4.397 27.234,4.398 27.584,4.766 L34.147,11.654 C34.406,11.924 34.476,12.320 34.326,12.662 C34.179,13.003 33.836,13.224 33.460,13.224 ZM26.897,5.859 L21.065,11.981 L22.347,11.981 C22.695,11.981 22.977,12.259 22.977,12.603 L22.977,15.423 L25.334,15.423 L25.334,12.852 C25.334,12.030 25.980,11.361 26.773,11.361 L27.020,11.361 C27.814,11.361 28.460,12.030 28.460,12.852 L28.460,15.423 L30.818,15.423 L30.818,12.603 C30.818,12.259 31.099,11.981 31.447,11.981 L32.729,11.981 L26.897,5.859 Z" class="cls-1"/>
</svg>
