<svg xmlns="http://www.w3.org/2000/svg" xmlns:xlink="http://www.w3.org/1999/xlink" preserveAspectRatio="xMidYMid" width="25.156" height="25.031" viewBox="0 0 25.156 25.031">
  <defs>
    <style>
      .cls-1 {
        fill: #6fd64b;
        fill-rule: evenodd;
      }
    </style>
  </defs>
  <path d="M12.583,-0.000 C5.635,-0.000 0.001,5.601 0.001,12.511 C0.001,19.420 5.635,25.021 12.583,25.021 C19.532,25.021 25.165,19.420 25.165,12.511 C25.165,5.601 19.532,-0.000 12.583,-0.000 ZM18.776,10.647 L12.055,17.330 C11.239,18.141 9.947,18.183 9.183,17.423 C9.073,17.314 8.984,17.192 8.909,17.064 L6.161,14.333 C5.345,13.522 5.304,12.237 6.068,11.477 C6.833,10.718 8.126,10.759 8.941,11.570 L10.615,13.235 L15.996,7.884 C16.812,7.073 18.104,7.032 18.868,7.792 C19.633,8.551 19.591,9.837 18.776,10.647 Z" class="cls-1"/>
</svg>
