<?xml version="1.0" encoding="utf-8"?>
<!-- Generator: Adobe Illustrator 19.1.0, SVG Export Plug-In . SVG Version: 6.00 Build 0)  -->
<svg version="1.1" id="Layer_1" xmlns="http://www.w3.org/2000/svg" xmlns:xlink="http://www.w3.org/1999/xlink" x="0px" y="0px"
	 viewBox="25 -12 100 95" style="enable-background:new 25 -12 100 95;" xml:space="preserve">
<style type="text/css">
	.st0{fill:#9398A0;}
</style>
<path class="st0" d="M100.6-5c2.4-2.4,5.3-3.6,8.6-3.6c3.3,0.1,6.2,1.3,8.8,3.8c2.3,2.3,3.5,5.2,3.5,8.7c0,3.5-1.2,6.4-3.5,8.9
	L92.9,38L118,63.3c2.3,2.3,3.5,5.2,3.7,8.8c0.1,3.5-1.1,6.6-3.7,9.2c-2.3,2.3-5.2,3.5-8.8,3.5c-3.5,0-6.6-1.4-9.2-4.1L75,55.9
	L49.9,81.2c-2.3,2.1-5.2,3.2-8.7,3.5c-3.5,0.3-6.5-0.9-9.1-3.5c-2.3-2.3-3.6-5.2-3.8-8.6c-0.2-3.4,0.9-6.4,3.4-9L57.4,38L31.7,12.3
	c-2.4-2.4-3.5-5.3-3.3-8.5c0.3-3.2,1.5-6.1,3.7-8.7C34.9-7.7,38-9,41.2-8.7c3.2,0.3,6.1,1.5,8.7,3.9L75,20.2L100.6-5z"/>
</svg>
