<svg xmlns="http://www.w3.org/2000/svg" xmlns:xlink="http://www.w3.org/1999/xlink" preserveAspectRatio="xMidYMid" width="31" height="22" viewBox="0 0 31 22">
  <defs>
    <style>
      .cls-1 {
        fill: #5d9bfb;
        fill-rule: evenodd;
      }
    </style>
  </defs>
  <path d="M29.512,19.925 L17.856,19.925 L16.037,21.751 C15.872,21.917 15.665,22.000 15.459,22.000 C15.252,22.000 15.045,21.917 14.880,21.751 L13.061,19.925 L11.325,19.925 C10.457,19.925 9.507,19.260 9.507,18.264 L9.507,14.943 L8.349,14.943 L6.531,16.770 C6.365,16.936 6.159,17.019 5.952,17.019 C5.745,17.019 5.539,16.936 5.373,16.770 L3.555,14.943 L1.819,14.943 C0.951,14.943 0.000,14.279 0.000,13.283 L0.000,1.660 C0.000,0.664 0.951,-0.000 1.819,-0.000 L20.005,-0.000 C20.873,-0.000 21.493,0.706 21.493,1.660 L21.493,4.566 L29.512,4.566 C30.380,4.566 31.000,5.230 31.000,6.226 L31.000,18.264 C31.000,19.219 30.380,19.925 29.512,19.925 ZM19.840,1.619 L1.819,1.619 C1.777,1.619 1.695,1.660 1.653,1.702 L1.653,13.200 C1.695,13.242 1.777,13.283 1.819,13.283 L3.885,13.283 C4.092,13.283 4.299,13.366 4.464,13.532 L5.952,15.026 L7.440,13.532 C7.605,13.366 7.812,13.283 8.019,13.283 L8.019,13.242 L9.507,13.242 L9.507,10.336 L4.960,10.336 C4.505,10.336 4.133,9.962 4.133,9.506 C4.133,9.049 4.505,8.675 4.960,8.675 L9.507,8.675 L9.507,6.185 L4.960,6.185 C4.505,6.185 4.133,5.811 4.133,5.355 C4.133,4.898 4.505,4.525 4.960,4.525 L11.325,4.525 L16.533,4.525 L19.840,4.525 L19.840,1.619 ZM29.347,6.185 L16.533,6.185 L11.325,6.185 C11.284,6.185 11.201,6.226 11.160,6.268 L11.160,18.181 C11.201,18.223 11.284,18.264 11.325,18.264 L13.392,18.264 C13.599,18.264 13.805,18.347 13.971,18.513 L15.459,20.008 L16.947,18.513 C17.112,18.347 17.319,18.264 17.525,18.264 L29.347,18.264 L29.347,6.185 ZM13.640,14.113 C13.640,13.657 14.012,13.283 14.467,13.283 L20.667,13.283 C21.121,13.283 21.493,13.657 21.493,14.113 C21.493,14.570 21.121,14.943 20.667,14.943 L14.467,14.943 C14.012,14.943 13.640,14.570 13.640,14.113 ZM13.640,9.962 C13.640,9.506 14.012,9.132 14.467,9.132 L26.040,9.132 C26.495,9.132 26.867,9.506 26.867,9.962 C26.867,10.419 26.495,10.792 26.040,10.792 L14.467,10.792 C14.012,10.792 13.640,10.419 13.640,9.962 Z" class="cls-1"/>
</svg>
