<svg xmlns="http://www.w3.org/2000/svg" xmlns:xlink="http://www.w3.org/1999/xlink" preserveAspectRatio="xMidYMid" width="46" height="48" viewBox="0 0 46 48">
  <defs>
    <style>
      .cls-1 {
        fill: #fff;
        fill-rule: evenodd;
      }
    </style>
  </defs>
  <path d="M46.007,18.540 L46.007,24.857 L23.002,6.317 L-0.005,24.857 L-0.005,18.540 L23.002,-0.000 L46.007,18.540 L46.007,18.540 ZM41.623,23.342 L41.623,34.046 L41.623,48.000 L4.381,48.000 L4.381,34.046 L4.381,23.342 L23.003,8.494 L41.623,23.342 ZM16.229,31.328 L16.229,30.261 L11.135,30.261 L11.135,34.341 L12.540,34.341 C13.846,38.903 18.111,42.128 23.002,42.128 C27.894,42.128 32.158,38.903 33.464,34.341 L34.869,34.341 L34.869,30.261 L29.776,30.261 L29.776,31.328 C29.776,35.033 26.737,38.048 23.002,38.048 C19.267,38.048 16.229,35.033 16.229,31.328 Z" class="cls-1"/>
</svg>
