<svg xmlns="http://www.w3.org/2000/svg" xmlns:xlink="http://www.w3.org/1999/xlink" preserveAspectRatio="xMidYMid" width="81" height="64" viewBox="0 0 81 64">
  <defs>
    <style>
      .cls-1 {
        fill: #fff;
        fill-rule: evenodd;
      }
    </style>
  </defs>
  <path d="M80.996,22.673 L76.714,24.399 L80.995,27.459 L76.711,29.187 L80.990,32.249 L76.702,33.975 L80.972,37.037 L76.665,38.765 L80.898,41.827 L61.924,49.436 L61.924,51.793 L42.889,58.504 L42.889,56.748 L25.208,63.988 L0.010,41.026 L3.965,39.802 L0.010,36.236 L3.965,35.012 L0.010,31.447 L3.965,30.223 L0.010,26.658 L3.965,25.434 L0.010,21.869 L3.898,20.667 L-0.001,17.124 L20.823,10.661 L19.627,9.694 L38.332,3.560 L39.814,4.810 L41.953,6.612 L42.850,7.367 L54.764,3.582 L73.359,16.988 L60.340,22.103 L61.543,23.075 L61.627,23.044 L75.590,17.345 L54.948,2.591 L41.976,6.611 L39.858,4.809 L55.450,-0.002 L80.584,17.926 L76.613,19.539 L80.996,22.673 ZM25.690,61.253 L42.889,54.210 L42.889,51.960 L25.175,59.198 L5.933,41.635 L4.526,42.050 L25.690,61.253 ZM25.690,56.465 L42.889,49.421 L42.889,47.171 L25.210,54.409 L5.796,36.846 L4.526,37.261 L25.690,56.465 ZM25.690,51.676 L42.889,44.631 L42.889,42.381 L25.210,49.620 L5.796,32.058 L4.526,32.472 L25.690,51.676 ZM25.690,46.886 L42.889,39.843 L42.889,37.593 L25.210,44.831 L5.796,27.268 L4.526,27.683 L25.690,46.886 ZM25.690,42.099 L42.889,35.055 L42.889,32.677 L24.990,40.089 L5.716,22.505 L4.526,22.895 L25.690,42.099 ZM23.055,12.469 L4.420,18.148 L25.477,37.356 L42.889,30.137 L42.889,29.268 L42.901,28.834 L26.235,35.502 L7.422,18.620 L24.110,13.318 L23.055,12.469 ZM27.331,15.915 L26.311,15.091 L12.058,19.618 L26.725,32.780 L41.181,27.103 L38.563,24.986 C27.874,24.553 27.113,18.624 27.331,15.915 ZM42.327,10.003 L40.197,8.208 L39.280,7.437 L37.812,6.205 L24.452,10.584 L25.717,11.621 L26.720,12.463 L28.836,14.237 L43.383,26.112 L45.894,28.141 L45.894,29.191 L45.894,31.730 L45.894,55.116 L58.918,50.156 L58.918,26.371 L58.917,26.371 L58.917,24.474 L57.725,23.083 L55.803,21.359 L42.327,10.003 ZM68.485,16.376 L54.349,6.184 L44.978,9.161 L46.199,10.188 C49.791,10.864 55.437,12.837 56.136,18.561 L58.293,20.380 L68.485,16.376 ZM73.935,20.586 L61.924,25.425 L61.924,27.743 L75.991,22.091 L73.935,20.586 ZM73.980,25.442 L61.924,30.282 L61.924,32.531 L76.040,26.880 L73.980,25.442 ZM73.980,30.231 L61.924,35.071 L61.924,37.320 L76.040,31.669 L73.980,30.231 ZM73.980,35.019 L61.924,39.859 L61.924,42.109 L76.040,36.457 L73.980,35.019 ZM73.980,39.808 L61.924,44.649 L61.924,46.898 L76.040,41.246 L73.980,39.808 ZM57.357,30.294 L56.702,33.395 C56.163,33.198 55.150,32.808 53.598,33.138 C52.197,33.436 51.740,34.294 51.739,35.030 C51.737,35.866 52.491,36.284 54.349,36.705 C56.911,37.257 57.922,38.485 57.916,40.874 C57.913,43.207 56.573,45.486 54.094,46.512 L54.089,49.213 L51.951,49.668 L51.955,47.176 C50.512,47.404 49.110,47.207 48.292,46.828 L48.944,43.619 C49.848,44.034 51.120,44.312 52.518,44.013 C53.774,43.746 54.614,42.966 54.617,41.942 C54.618,40.944 53.930,40.464 52.316,40.153 C50.007,39.699 48.435,38.718 48.439,36.177 C48.444,33.839 49.784,31.747 52.092,30.730 L52.097,28.239 L54.215,27.789 L54.211,30.096 C55.633,29.847 56.601,30.036 57.357,30.294 Z" class="cls-1"/>
</svg>
