<svg xmlns="http://www.w3.org/2000/svg" xmlns:xlink="http://www.w3.org/1999/xlink" preserveAspectRatio="xMidYMid" width="61" height="60" viewBox="0 0 61 60">
  <defs>
    <style>
      .cls-1 {
        fill: #fff;
        fill-rule: evenodd;
      }
    </style>
  </defs>
  <path d="M57.773,18.937 C55.695,20.978 52.837,22.126 49.850,22.126 C48.681,22.126 47.512,21.998 46.473,21.616 L35.203,32.743 L36.731,34.244 L37.381,33.606 C38.810,32.203 41.407,32.203 42.966,33.606 L55.305,45.724 C56.084,46.490 56.474,47.383 56.474,48.403 C56.474,49.424 56.084,50.444 55.305,51.082 L52.188,54.143 C51.278,54.909 50.369,55.291 49.330,55.291 C48.291,55.291 47.252,54.909 46.603,54.143 L34.264,42.025 C33.484,41.260 33.095,40.367 33.095,39.346 C33.095,38.326 33.484,37.306 34.264,36.668 L34.913,36.030 L33.389,34.533 L22.055,45.724 C23.353,49.679 22.314,53.888 19.327,56.822 C17.119,58.863 14.262,60.011 11.274,60.011 C10.625,60.011 10.105,60.011 9.456,59.883 C8.936,59.756 8.547,59.501 8.417,58.991 C8.287,58.480 8.417,58.098 8.677,57.715 L12.054,54.398 C12.963,53.505 13.352,52.485 13.352,51.209 C13.352,50.061 12.833,48.913 12.054,48.148 C10.365,46.490 7.378,46.490 5.689,48.148 L2.312,51.465 C1.923,51.847 1.403,51.975 1.013,51.720 C0.494,51.592 0.234,51.209 0.104,50.699 C-0.415,47.255 0.754,43.683 3.221,41.132 C5.300,39.091 8.157,37.943 11.144,37.943 C12.313,37.943 13.482,38.071 14.521,38.454 L25.947,27.232 L12.707,14.341 L12.573,14.473 C12.313,14.728 11.924,14.855 11.534,14.855 C11.404,14.855 11.274,14.855 11.144,14.855 L8.936,14.217 C8.677,14.090 8.417,13.962 8.287,13.707 L4.780,8.732 C4.390,8.222 4.520,7.584 4.910,7.074 L7.248,4.778 C7.637,4.395 8.417,4.268 8.936,4.650 L14.002,8.095 C14.262,8.222 14.391,8.477 14.521,8.732 L15.171,10.901 C15.301,11.411 15.171,11.794 14.911,12.176 L14.521,12.559 L27.704,25.506 L39.069,14.345 C37.771,10.391 38.810,6.181 41.797,3.247 C44.395,0.696 47.901,-0.452 51.538,0.186 C52.058,0.313 52.447,0.569 52.577,1.079 C52.707,1.589 52.577,1.972 52.318,2.354 L48.941,5.671 C48.031,6.564 47.642,7.584 47.642,8.860 C47.642,10.008 48.161,11.156 48.941,11.921 C50.629,13.580 53.616,13.580 55.305,11.921 L58.682,8.605 C59.072,8.222 59.591,8.095 59.981,8.350 C60.500,8.477 60.760,8.860 60.890,9.370 C61.409,12.814 60.240,16.386 57.773,18.937 ZM35.952,40.112 L48.291,52.230 C48.811,52.740 49.720,52.740 50.109,52.230 L53.227,49.169 C53.487,48.913 53.616,48.658 53.616,48.276 C53.616,47.893 53.487,47.638 53.227,47.383 L41.018,35.265 C40.758,35.009 40.368,34.882 39.979,34.882 C39.589,34.882 39.329,35.009 39.069,35.265 L37.511,36.795 L37.511,36.795 C37.511,36.795 37.511,36.795 37.511,36.795 L35.952,38.326 C35.692,38.581 35.563,38.836 35.563,39.219 C35.563,39.602 35.692,39.857 35.952,40.112 ZM12.183,10.008 L8.417,7.457 L7.508,8.095 L10.235,11.921 L11.274,12.176 L12.443,11.028 L12.183,10.008 ZM57.383,13.962 C56.084,15.238 54.266,16.003 52.318,16.003 C50.369,16.003 48.681,15.238 47.252,13.962 C45.953,12.687 45.174,10.901 45.174,8.987 C45.174,7.074 45.953,5.416 47.252,4.013 L48.421,2.865 C46.733,3.120 45.174,4.013 43.875,5.161 C41.407,7.584 40.628,11.156 41.927,14.345 C42.187,14.855 42.057,15.365 41.667,15.748 L15.950,40.877 C15.560,41.260 15.041,41.387 14.521,41.132 C13.482,40.750 12.443,40.495 11.274,40.495 C8.936,40.495 6.858,41.387 5.170,42.918 C3.871,44.194 3.091,45.724 2.832,47.383 L4.001,46.235 C5.300,44.959 7.118,44.321 9.066,44.321 C11.014,44.321 12.703,45.087 14.132,46.362 C15.430,47.638 16.210,49.424 16.210,51.337 C16.210,53.250 15.430,54.909 14.132,56.312 L12.963,57.460 C14.651,57.205 16.210,56.312 17.509,55.164 C19.976,52.740 20.756,49.169 19.457,45.980 C19.197,45.469 19.327,44.959 19.717,44.576 L32.122,32.393 C32.180,32.188 32.274,31.989 32.445,31.821 C32.617,31.652 32.819,31.560 33.028,31.503 L45.434,19.320 C45.823,18.937 46.343,18.809 46.862,19.065 C47.901,19.447 48.941,19.702 50.109,19.702 C52.447,19.702 54.526,18.809 56.214,17.279 C57.513,16.003 58.292,14.473 58.552,12.814 L57.383,13.962 Z" class="cls-1"/>
</svg>
