<svg xmlns="http://www.w3.org/2000/svg" xmlns:xlink="http://www.w3.org/1999/xlink" preserveAspectRatio="xMidYMid" width="27" height="27" viewBox="0 0 27 27">
  <defs>
    <style>
      .cls-1 {
        fill: #fb5c5d;
        fill-rule: evenodd;
      }
    </style>
  </defs>
  <path d="M13.500,0.000 C6.044,0.000 0.000,6.044 0.000,13.500 C0.000,20.955 6.044,27.000 13.500,27.000 C20.956,27.000 27.000,20.955 27.000,13.500 C27.000,6.044 20.956,0.000 13.500,0.000 ZM18.597,15.614 C19.473,16.490 19.518,17.876 18.698,18.696 C17.877,19.517 16.489,19.472 15.615,18.596 L13.500,16.483 L11.386,18.597 C10.510,19.474 9.124,19.519 8.303,18.698 C7.483,17.876 7.527,16.490 8.403,15.616 L10.517,13.502 L8.403,11.388 C7.527,10.513 7.483,9.125 8.303,8.306 C9.124,7.485 10.511,7.530 11.386,8.405 L13.500,10.516 L15.614,8.402 C16.490,7.526 17.876,7.482 18.696,8.302 C19.516,9.122 19.473,10.509 18.596,11.384 L16.482,13.498 L18.597,15.614 Z" class="cls-1"/>
</svg>
